<mxfile host="app.diagrams.net" modified="2023-11-16T12:23:44.882Z" agent="Mozilla/5.0 (Windows NT 10.0; Win64; x64) AppleWebKit/537.36 (KHTML, like Gecko) Chrome/119.0.0.0 Safari/537.36 Edg/119.0.0.0" etag="tS4E6tRaGPsmvkKbdHM5" version="22.1.2" type="github">
  <diagram name="Page-1" id="HL3B-6AlwqCYSgc4t9lP">
    <mxGraphModel dx="1688" dy="954" grid="0" gridSize="10" guides="1" tooltips="1" connect="1" arrows="1" fold="1" page="1" pageScale="1" pageWidth="850" pageHeight="1100" math="0" shadow="0">
      <root>
        <mxCell id="0" />
        <mxCell id="1" parent="0" />
      </root>
    </mxGraphModel>
  </diagram>
</mxfile>
